<?xml version="1.0" encoding="UTF-8" standalone="no"?>
<svg
   xmlns:dc="http://purl.org/dc/elements/1.1/"
   xmlns:cc="http://creativecommons.org/ns#"
   xmlns:rdf="http://www.w3.org/1999/02/22-rdf-syntax-ns#"
   xmlns:svg="http://www.w3.org/2000/svg"
   xmlns="http://www.w3.org/2000/svg"
   xmlns:sodipodi="http://sodipodi.sourceforge.net/DTD/sodipodi-0.dtd"
   xmlns:inkscape="http://www.inkscape.org/namespaces/inkscape"
   inkscape:version="1.0 (4035a4fb49, 2020-05-01)"
   sodipodi:docname="pinDefault.svg"
   xml:space="preserve"
   style="enable-background:new 0 0 512 512;"
   viewBox="0 0 512 512"
   y="0px"
   x="0px"
   id="Capa_1"
   version="1.1"><metadata
   id="metadata41"><rdf:RDF><cc:Work
       rdf:about=""><dc:format>image/svg+xml</dc:format><dc:type
         rdf:resource="http://purl.org/dc/dcmitype/StillImage" /></cc:Work></rdf:RDF></metadata><defs
   id="defs39" /><sodipodi:namedview
   inkscape:current-layer="Capa_1"
   inkscape:window-maximized="1"
   inkscape:window-y="-8"
   inkscape:window-x="1912"
   inkscape:cy="256"
   inkscape:cx="256"
   inkscape:zoom="1.3085938"
   showgrid="false"
   id="namedview37"
   inkscape:window-height="837"
   inkscape:window-width="1600"
   inkscape:pageshadow="2"
   inkscape:pageopacity="0"
   guidetolerance="10"
   gridtolerance="10"
   objecttolerance="10"
   borderopacity="1"
   bordercolor="#666666"
   pagecolor="#ffffff" />
<path
   id="path2"
   d="M256,0C156.698,0,76,80.7,76,180c0,33.6,9.302,66.301,27.001,94.501l140.797,230.414  c2.402,3.9,6.002,6.301,10.203,6.901c5.698,0.899,12.001-1.5,15.3-7.2l141.2-232.516C427.299,244.501,436,212.401,436,180  C436,80.7,355.302,0,256,0z M256,270c-50.398,0-90-40.8-90-90c0-49.501,40.499-90,90-90s90,40.499,90,90  C346,228.9,306.999,270,256,270z"
   style="fill:#a1887f;fill-opacity:1" />
<path
   id="path4"
   d="M256,0v90c49.501,0,90,40.499,90,90c0,48.9-39.001,90-90,90v241.991  c5.119,0.119,10.383-2.335,13.3-7.375L410.5,272.1c16.799-27.599,25.5-59.699,25.5-92.1C436,80.7,355.302,0,256,0z"
   style="fill:#a1887f;fill-opacity:1" />
<g
   style="fill:#a1887f;fill-opacity:1"
   id="g6">
</g>
<g
   style="fill:#a1887f;fill-opacity:1"
   id="g8">
</g>
<g
   style="fill:#a1887f;fill-opacity:1"
   id="g10">
</g>
<g
   style="fill:#a1887f;fill-opacity:1"
   id="g12">
</g>
<g
   style="fill:#a1887f;fill-opacity:1"
   id="g14">
</g>
<g
   style="fill:#a1887f;fill-opacity:1"
   id="g16">
</g>
<g
   style="fill:#a1887f;fill-opacity:1"
   id="g18">
</g>
<g
   style="fill:#a1887f;fill-opacity:1"
   id="g20">
</g>
<g
   style="fill:#a1887f;fill-opacity:1"
   id="g22">
</g>
<g
   style="fill:#a1887f;fill-opacity:1"
   id="g24">
</g>
<g
   style="fill:#a1887f;fill-opacity:1"
   id="g26">
</g>
<g
   style="fill:#a1887f;fill-opacity:1"
   id="g28">
</g>
<g
   style="fill:#a1887f;fill-opacity:1"
   id="g30">
</g>
<g
   style="fill:#a1887f;fill-opacity:1"
   id="g32">
</g>
<g
   style="fill:#a1887f;fill-opacity:1"
   id="g34">
</g>
</svg>
